<?xml version="1.0" encoding="UTF-8"?>
<svg id="_圖層_2" data-name="圖層 2" xmlns="http://www.w3.org/2000/svg" viewBox="0 0 33.17 16.76">
  <defs>
    <style>
      .cls-1 {
        fill: #000;
      }

      .cls-1, .cls-2 {
        stroke-width: 0px;
      }

      .cls-2 {
        fill: #fff;
      }
    </style>
  </defs>
  <g id="_圖層_1-2" data-name=" 圖層 1">
    <path class="cls-1" d="M3.57.01c.55,0,1.16-.04,1.77.02.33.03.71.15.96.36.69.56,1.4,1.12,1.86,1.91.03.05.2.06.28.03.87-.34,1.71-.76,2.6-1.01.74-.21,1.53-.22,2.31-.3,1.14-.12,2.27-.25,3.41-.33.55-.04,1.11.04,1.66.03,1.42-.03,2.69.46,3.96,1.04.59.27,1.22.44,1.8.72.34.16.63.43.95.65.11.08.23.16.34.24.13.1.2.05.31-.07.59-.64,1.21-1.32,2.03-1.6.83-.29,1.73-.36,2.64-.22,1.07.16,1.84.75,2.5,1.53.35.41.27.82-.14,1.17-.42.35-.85.52-1.4.29-.58-.24-1.16-.45-1.76-.63-.38-.11-.78-.17-1.18-.21-.3-.03-.57.06-.77.33-.16.22-.36.4-.55.6-.14.14-.19.26-.02.41.1.09.17.23.26.34.78.98,1.03,2.15,1.13,3.35.09,1.03-.09,2.04-.27,3.05-.22,1.16-.89,2-1.77,2.76-.98.84-2.09,1.35-3.34,1.61-.86.18-1.72.45-2.6.5-1.47.09-2.94.33-4.44.04-1.14-.22-2.3-.51-3.5-.43-.43.03-.87-.18-1.31-.27-.89-.19-1.8-.29-2.65-.58-.98-.34-1.98-.68-2.84-1.32-.9-.67-1.61-1.49-1.96-2.57-.19-.58-.32-1.18-.42-1.78-.16-.88.11-1.7.44-2.5.5-1.22,1.27-2.25,2.2-3.17.22-.21.47-.39.71-.58.18-.15.17-.28-.01-.42-.61-.48-1.26-.8-2.06-.57-.1.03-.22.08-.31.05-.87-.29-1.47.33-2.17.62-.31.13-.64.25-.97.3C.18,3.56-.2,2.44.1,1.78c.13-.28.33-.56.57-.75C1.72.21,2.17.06,3.56.03V.01ZM27.91,7.19c-.28.29-.38.19-.46-.11-.38-1.38-1.84-1.9-2.86-1.89-.8,0-1.4.43-1.79,1.14-.05.09-.18.15-.27.22,0-.12-.04-.27,0-.37.37-.82,1.47-1.44,2.36-1.33.75.09,1.44.38,2.01.87.3.26.53.6.79.91-.04-.27-.09-.58-.26-.78-.55-.65-1.14-1.28-1.74-1.9-.21-.21-.55-.31-.73-.54-.37-.47-.88-.65-1.4-.85-.47-.18-.93-.39-1.41-.56-.74-.27-1.47-.6-2.23-.75-.89-.17-1.82-.18-2.74-.25-.15-.01-.31,0-.46.01-1.41.14-2.81.31-4.22.4-1.14.07-2.2.44-3.22.89-.76.33-1.47.79-2.18,1.24-.4.25-.8.53-1.1.89-.65.78-1.36,1.54-1.7,2.53-.21.62-.49,1.24-.56,1.88-.09.85.11,1.7.4,2.52.52,1.45,1.53,2.4,2.91,2.99.25.1.52.13.76.25.81.39,1.63.73,2.54.85.56.07,1.11.21,1.67.3.36.06.72.1,1.08.13.77.08,1.55.1,2.32.24,1.29.24,2.56.43,3.89.16,1.23-.25,2.49-.38,3.74-.54,1.51-.19,2.7-.97,3.73-2.01.5-.51.93-1.11,1.07-1.84.07-.37.06-.76.16-1.12.31-1.19.22-2.35-.11-3.58h0ZM3.23.34C2.01.48,1.08.82.47,1.77c-.23.35-.16.71.04,1.03.2.31.55.32.83.22.55-.19,1.09-.43,1.61-.69.31-.15.61-.29.97-.27.34.02.68-.02,1.01-.03.23,0,.47-.02.7.02.56.1,1.02.42,1.43.81.18.18.34.17.54.06.38-.23.44-.44.14-.76-.49-.52-1-1.04-1.56-1.48-.25-.2-.65-.29-.99-.31-.7-.05-1.41-.01-1.96-.01v-.02ZM29.32,1.72c-.46.11-1.13.16-1.7.43-.55.26-.99.74-1.46,1.15-.11.09-.22.35-.17.42.19.28.43.53.7.74.04.03.32-.24.48-.38.1-.09.19-.18.27-.28.32-.46.77-.56,1.3-.5.82.1,1.58.35,2.33.68.42.18.86.32,1.33.09.48-.24.59-.63.22-1.02-.25-.27-.54-.5-.82-.73-.67-.55-1.5-.48-2.48-.6Z"/>
    <path class="cls-2" d="M27.91,7.19c.33,1.23.42,2.39.11,3.58-.1.36-.08.75-.16,1.12-.14.73-.56,1.33-1.07,1.84-1.03,1.04-2.22,1.82-3.73,2.01-1.25.16-2.51.29-3.74.54-1.32.27-2.59.08-3.89-.16-.76-.14-1.54-.16-2.32-.24-.36-.04-.72-.07-1.08-.13-.56-.09-1.11-.23-1.67-.3-.9-.12-1.72-.46-2.54-.85-.24-.12-.52-.14-.76-.25-1.38-.59-2.39-1.54-2.91-2.99-.3-.82-.5-1.67-.4-2.52.07-.64.35-1.26.56-1.88.34-.99,1.05-1.75,1.7-2.53.3-.36.7-.64,1.1-.89.71-.44,1.42-.9,2.18-1.24,1.02-.45,2.07-.82,3.22-.89,1.41-.09,2.81-.27,4.22-.4.15-.01.31-.02.46-.01.91.07,1.84.08,2.74.25.76.15,1.49.48,2.23.75.47.17.94.38,1.41.56.52.2,1.03.38,1.4.85.18.23.52.33.73.54.6.61,1.18,1.24,1.74,1.9.17.2.22.51.26.78-.26-.31-.49-.65-.79-.91-.57-.49-1.26-.78-2.01-.87-.89-.11-1.98.51-2.36,1.33-.05.1,0,.25,0,.37.09-.07.22-.12.27-.22.39-.71.99-1.13,1.79-1.14,1.02,0,2.48.51,2.86,1.89.08.3.18.4.46.11h0ZM16.69,12.85c-.93.13-1.7.22-2.47.34-.3.04-.52.21-.51.54.01.34.3.41.56.42.28.01.56-.02.84-.07.63-.12,1.25-.3,1.81.21.11.1.41.11.55.02.36-.22.71-.2,1.09-.14.34.06.68.1,1.01.15.24.03.42-.09.45-.3.02-.14-.04-.36-.15-.45-.16-.15-.37-.27-.58-.31-.91-.16-1.83-.29-2.61-.42h.01ZM9.44,3.31c-.45.13-.92.21-1.34.4-1.05.49-1.61,1.41-2,2.44-.01.03-.03.07-.02.1.02.06.05.15.1.16.05.02.14-.02.17-.07.05-.06.06-.15.09-.22.45-.97.92-1.9,2.08-2.23.83-.24,1.62-.33,2.29.3.3.28.47.69.71,1.03.06.09.18.14.27.21.01-.1.07-.22.04-.31-.31-.91-1.4-1.86-2.4-1.81h.01ZM24.41,10.73c.26,0,.66-.35.66-.59,0-.36-.39-.76-.79-.78-.33-.02-.72.36-.72.69,0,.31.45.67.84.67h.01ZM8.75,9.77c.41,0,.68-.25.68-.64,0-.34-.27-.55-.72-.55-.4,0-.71.27-.7.64,0,.31.32.55.73.55h0Z"/>
    <path class="cls-2" d="M3.23.34c.55,0,1.26-.03,1.96.01.34.02.73.11.99.31.56.44,1.07.96,1.56,1.48.31.33.25.53-.14.76-.19.12-.35.12-.54-.06-.4-.39-.86-.71-1.43-.81-.23-.04-.47-.02-.7-.02-.34,0-.68.05-1.01.03-.36-.02-.66.11-.97.27-.52.26-1.06.5-1.61.69-.28.1-.63.09-.83-.22-.21-.33-.27-.68-.04-1.03C1.08.81,2.01.47,3.23.32v.02Z"/>
    <path class="cls-2" d="M29.32,1.72c.98.12,1.81.05,2.48.6.28.23.57.46.82.73.37.39.26.78-.22,1.02-.47.23-.91.1-1.33-.09-.75-.33-1.51-.58-2.33-.68-.54-.06-.98.04-1.3.5-.07.1-.17.2-.27.28-.16.14-.44.41-.48.38-.26-.21-.51-.46-.7-.74-.05-.07.06-.33.17-.42.47-.41.91-.89,1.46-1.15.57-.27,1.24-.32,1.7-.43Z"/>
    <path class="cls-1" d="M16.69,12.85c.78.12,1.69.25,2.61.42.21.04.43.16.58.31.11.1.17.31.15.45-.03.21-.21.33-.45.3-.34-.05-.68-.09-1.01-.15-.38-.07-.73-.09-1.09.14-.13.08-.44.07-.55-.02-.57-.51-1.18-.33-1.81-.21-.28.05-.56.08-.84.07-.26-.01-.55-.08-.56-.42-.01-.33.21-.49.51-.54.77-.12,1.54-.21,2.47-.34h-.01Z"/>
    <path class="cls-1" d="M9.44,3.31c1-.04,2.09.9,2.4,1.81.03.09-.02.21-.04.31-.09-.07-.21-.12-.27-.21-.24-.34-.41-.75-.71-1.03-.67-.63-1.46-.54-2.29-.3-1.16.33-1.64,1.26-2.08,2.23-.03.07-.04.16-.09.22-.04.04-.13.09-.17.07-.05-.02-.08-.1-.1-.16-.01-.03,0-.07.02-.1.4-1.04.95-1.96,2-2.44.42-.19.89-.27,1.34-.4h0Z"/>
    <path class="cls-1" d="M24.41,10.73c-.39,0-.84-.37-.84-.67,0-.34.39-.71.72-.69.39.02.79.42.79.78,0,.24-.4.6-.66.59h-.01ZM24.74,10.09c-.2-.12-.31-.23-.39-.22-.12.03-.21.16-.32.24.08.08.17.22.25.21.13-.01.24-.12.46-.24h0Z"/>
    <path class="cls-1" d="M8.75,9.77c-.42,0-.73-.24-.73-.55,0-.36.3-.64.7-.64.45,0,.72.21.72.55,0,.39-.27.64-.68.64h0ZM9.03,9.22c-.14-.1-.24-.22-.31-.21-.07.01-.17.15-.18.24,0,.06.12.18.19.18.08,0,.16-.11.3-.21Z"/>
    <path class="cls-2" d="M24.74,10.09c-.22.12-.33.23-.46.24-.08,0-.17-.14-.25-.21.11-.09.2-.21.32-.24.08-.02.19.1.39.22h0Z"/>
    <path class="cls-2" d="M9.03,9.22c-.14.1-.22.2-.3.21-.06,0-.19-.12-.19-.18.01-.09.1-.23.18-.24.07-.01.17.11.31.21Z"/>
  </g>
</svg>